<?xml version="1.0" encoding="UTF-8"?>
<svg id="Layer_1" data-name="Layer 1" xmlns="http://www.w3.org/2000/svg" viewBox="0 0 126.37 123.4">
  <defs>
    <style>
      .cls-1 {
        fill: #231f20;
      }

      .cls-2 {
        fill: none;
        stroke: #231f20;
        stroke-miterlimit: 10;
      }
    </style>
  </defs>
  <g>
    <path class="cls-1" d="M52.27,87.95l-1.51,1.39-.65-.78,2.29-1.89h.98v8.22h-1.11v-6.94Z"/>
    <path class="cls-1" d="M60.42,91.71h-.05c-.27.13-.57.19-.91.19-1.18,0-2.54-.8-2.54-2.6s1.28-2.76,2.82-2.76,2.82,1.04,2.82,2.65c0,1.01-.32,1.64-.82,2.43l-2.08,3.28h-1.31l2.07-3.18ZM59.74,87.51c-1.02,0-1.71.71-1.71,1.71s.68,1.71,1.71,1.71,1.71-.71,1.71-1.71-.69-1.71-1.71-1.71Z"/>
    <path class="cls-1" d="M64.44,92.54c0-1.02.67-1.76,1.57-2.01v-.04c-.62-.16-1.29-.78-1.29-1.91,0-1.24,1.11-2.04,2.4-2.04s2.4.8,2.4,2.04c0,1.14-.67,1.75-1.29,1.91v.04c.89.24,1.57.99,1.57,2.01,0,1.56-1.19,2.5-2.68,2.5s-2.68-.94-2.68-2.5ZM68.69,92.54c0-1-.7-1.51-1.57-1.52-.91.01-1.57.65-1.57,1.52,0,.96.72,1.52,1.57,1.52.93,0,1.57-.63,1.57-1.52ZM67.13,90.04c.86,0,1.29-.63,1.29-1.3,0-.75-.52-1.3-1.29-1.3-.71,0-1.29.53-1.29,1.3,0,.64.47,1.3,1.29,1.3Z"/>
    <path class="cls-1" d="M75.18,93.08h-3.51v-1.14l3.28-5.27h1.35v5.43h1.16v.98h-1.16v1.81h-1.12v-1.81ZM75.18,88h-.02l-2.51,4.11h2.53v-4.11Z"/>
  </g>
  <g>
    <path class="cls-1" d="M53.96,29.49h5.31v1.04h-4.19v2.45h3.9v1.04h-3.9v2.63h4.4v1.04h-5.51v-8.22Z"/>
    <path class="cls-1" d="M62.22,35.99c.39.6,1.08.88,1.74.88.73,0,1.64-.46,1.64-1.37,0-1.89-4.05-.72-4.05-3.92,0-.96.81-2.3,2.79-2.3.9,0,1.75.19,2.37.94l-.9.82c-.28-.43-.82-.72-1.46-.72-1.23,0-1.6.74-1.6,1.25,0,2.08,4.05.84,4.05,3.8,0,1.59-1.28,2.54-2.86,2.54-1.06,0-2.07-.36-2.62-1.14l.92-.79Z"/>
    <path class="cls-1" d="M71.07,30.53h-2.65v-1.04h6.41v1.04h-2.65v7.17h-1.12v-7.17Z"/>
    <path class="cls-1" d="M75.45,37.01c0-.42.35-.77.77-.77s.77.35.77.77-.35.77-.77.77-.77-.35-.77-.77Z"/>
  </g>
  <g>
    <path class="cls-1" d="M31.97,10.56c-.59-.19-1.27-.07-1.77.28-1.25.85-1.39,2.41-.53,3.67.8,1.17,2.25,1.63,3.55.75.64-.43.93-1.05.94-1.74l.96.04c0,.34-.17,1.54-1.44,2.41-1.76,1.21-3.86.48-4.82-.92-1.18-1.72-.84-3.77.87-4.94.73-.5,1.69-.75,2.53-.47l-.3.91Z"/>
    <path class="cls-1" d="M34.82,7.22l3.89-1.93.38.77-3.07,1.52.89,1.8,2.86-1.42.38.77-2.86,1.42.96,1.93,3.23-1.6.38.77-4.05,2-2.99-6.03Z"/>
    <path class="cls-1" d="M42.12,3.9l2.24-.76c1.63-.55,2.37.29,2.64,1.09.27.81-.07,1.78-1,2.21l2.79,2.3-1.08.36-2.57-2.26-.96.33.95,2.81-.86.29-2.16-6.37ZM43.93,6.42l1.13-.38c.68-.23,1.31-.62,1.02-1.49-.29-.86-1.03-.79-1.71-.56l-1.13.38.69,2.05Z"/>
    <path class="cls-1" d="M51.12,2.19l-2.12.43-.17-.84,5.14-1.05.17.84-2.12.43,1.17,5.75-.89.18-1.17-5.75Z"/>
    <path class="cls-1" d="M56.96.4l.91-.09.67,6.69-.91.09-.67-6.69Z"/>
    <path class="cls-1" d="M61.5.07l4.23-.07v.86s-3.3.06-3.3.06l.03,2.11,3.09-.05v.85s-3.07.05-3.07.05l.05,2.91-.91.02-.12-6.73Z"/>
    <path class="cls-1" d="M69.07.29l.91.09-.65,6.69-.91-.09.65-6.69Z"/>
    <path class="cls-1" d="M78.07,3.24c-.27-.56-.83-.96-1.43-1.09-1.48-.31-2.7.66-3.02,2.16-.29,1.38.38,2.76,1.91,3.08.75.16,1.4-.05,1.9-.52l.63.73c-.25.23-1.23.94-2.73.63-2.09-.44-3.01-2.46-2.66-4.12.43-2.04,2.15-3.21,4.17-2.79.87.18,1.71.7,2.09,1.51l-.86.41Z"/>
    <path class="cls-1" d="M84.49,3.76l.77.29.33,7.3-1-.37-.05-1.79-2.99-1.12-1.21,1.32-1-.37,5.13-5.25ZM84.53,8.32l-.09-3.33h-.02s-2.28,2.44-2.28,2.44l2.38.89Z"/>
    <path class="cls-1" d="M90.73,7.41l-1.92-1,.39-.76,4.65,2.42-.4.76-1.92-1-2.71,5.2-.81-.42,2.71-5.2Z"/>
    <path class="cls-1" d="M96.53,9.73l3.56,2.48-.49.7-2.81-1.96-1.14,1.64,2.62,1.82-.49.7-2.62-1.82-1.23,1.77,2.95,2.06-.49.7-3.7-2.58,3.84-5.52Z"/>
  </g>
  <g>
    <path class="cls-1" d="M21.01,102.23c1.32-1.43,3.37-1.58,4.85-.23,1.47,1.35,1.5,3.42.19,4.85-1.31,1.43-3.37,1.58-4.85.23-1.47-1.35-1.5-3.42-.19-4.85ZM25.35,106.21c.97-1.06,1.05-2.58-.05-3.6-1.11-1.01-2.62-.8-3.59.25-.97,1.06-1.05,2.58.06,3.6,1.11,1.02,2.62.81,3.59-.25Z"/>
    <path class="cls-1" d="M30.2,105.83l3.39,2.35-.48.69-2.66-1.84-1.17,1.69,2.48,1.72-.48.69-2.48-1.72-1.61,2.33-.73-.51,3.74-5.39Z"/>
    <path class="cls-1" d="M42.57,114.32c-.15-.59-.6-1.08-1.15-1.32-1.35-.59-2.71.1-3.31,1.47-.55,1.26-.18,2.71,1.22,3.32.69.3,1.35.22,1.92-.12l.46.82c-.29.17-1.36.66-2.73.06-1.91-.83-2.39-2.94-1.73-4.45.81-1.87,2.68-2.65,4.53-1.84.79.34,1.49,1,1.7,1.85l-.9.22Z"/>
    <path class="cls-1" d="M44.71,117.14c.51-1.88,2.26-2.96,4.2-2.43,1.93.52,2.91,2.34,2.4,4.22-.51,1.88-2.27,2.95-4.2,2.43-1.93-.52-2.9-2.34-2.4-4.21ZM50.39,118.67c.37-1.38-.26-2.77-1.7-3.16-1.45-.39-2.69.49-3.07,1.87-.37,1.38.26,2.77,1.7,3.16,1.45.39,2.69-.49,3.07-1.87Z"/>
    <path class="cls-1" d="M54.39,116.17l1.32.14,1.56,5.15h.04s2.56-4.72,2.56-4.72l1.32.14-.67,6.52-.88-.09.55-5.36h-.02l-2.76,5.13-.59-.06-1.65-5.59h-.02s-.55,5.36-.55,5.36l-.88-.09.67-6.52Z"/>
    <path class="cls-1" d="M63.88,116.84l2.31-.09c1.68-.06,2.14.93,2.17,1.75.03.82-.36,1.85-2.03,1.91l-1.42.05.11,2.89-.89.03-.25-6.55ZM64.88,119.7l1.17-.04c.7-.03,1.4-.22,1.37-1.11-.03-.89-.74-1.03-1.45-1l-1.17.04.08,2.11Z"/>
    <path class="cls-1" d="M70.52,116.4l.88-.13.86,5.66,2.98-.45.13.83-3.86.58-.98-6.49Z"/>
    <path class="cls-1" d="M76.38,115.38l4.08-1.11.22.8-3.23.88.51,1.89,3-.82.22.8-3,.82.55,2.03,3.39-.92.22.8-4.25,1.15-1.72-6.33Z"/>
    <path class="cls-1" d="M84.48,113.68l-1.96.79-.31-.77,4.74-1.92.31.77-1.96.79,2.15,5.3-.82.33-2.15-5.3Z"/>
    <path class="cls-1" d="M88.86,110.79l.79-.41,3.01,5.82-.79.41-3.01-5.83Z"/>
    <path class="cls-1" d="M93.65,112.01c-1.08-1.62-.74-3.65.92-4.76s3.67-.65,4.76.96c1.08,1.62.74,3.65-.92,4.76-1.66,1.11-3.67.65-4.76-.96ZM98.55,108.74c-.8-1.19-2.26-1.63-3.51-.79-1.25.83-1.4,2.35-.6,3.54.8,1.19,2.26,1.63,3.51.8,1.25-.84,1.4-2.35.6-3.55Z"/>
    <path class="cls-1" d="M99.32,104.01l.86-.79,6.31,1.53h.01s-3.64-3.99-3.64-3.99l.66-.6,4.43,4.83-.83.76-6.33-1.51h-.01s3.65,3.99,3.65,3.99l-.66.6-4.44-4.83Z"/>
  </g>
  <path class="cls-2" d="M.85,49.05c41.84-.17,83.67-.18,125.51-.04"/>
  <path class="cls-2" d="M.85,74.19h125.51"/>
  <path class="cls-1" d="M63.6,12.78c22.41,0,41.28,15.43,46.54,36.23.36-.02.72-.02,1.08-.02-5.29-21.37-24.63-37.27-47.62-37.27S21.52,27.45,16.1,48.64c.34.08.68.16,1.03.25C22.43,28.16,41.24,12.78,63.6,12.78Z"/>
  <path class="cls-1" d="M109.7,74.16c-5.81,19.98-24.27,34.64-46.1,34.64s-40.55-14.86-46.22-35.07c-.03,0-.06-.01-.09-.02-.32.05-.64.1-.96.15,5.74,20.73,24.75,35.99,47.28,35.99s41.26-15.04,47.15-35.52c-.35-.06-.7-.12-1.05-.17Z"/>
  <path class="cls-1" d="M23.85,16.98C14.56,25.38,7.91,36.66,5.4,49.42c.36,0,.72-.03,1.08-.03,2.49-12.39,8.96-23.34,17.97-31.53-.22-.28-.41-.58-.6-.88Z"/>
  <path class="cls-1" d="M102.6,16.49c-.21.28-.4.58-.6.86,9.27,8.21,15.93,19.32,18.5,31.91.28.03.56.06.84.09.05-.06.13-.09.22-.11-2.59-12.93-9.42-24.34-18.95-32.75Z"/>
  <path class="cls-1" d="M18.89,98.1c-5.71-6.84-9.91-14.98-12.01-23.94-.37-.04-.74-.08-1.11-.12,2.11,9.29,6.44,17.73,12.36,24.8.25-.25.51-.5.76-.75Z"/>
  <path class="cls-1" d="M109.02,98.71c5.77-6.94,9.99-15.21,12.12-24.28-.37.06-.75.11-1.12.16-2.12,8.75-6.23,16.74-11.82,23.45.27.22.55.43.82.66Z"/>
  <g>
    <path class="cls-1" d="M7.79,58.95c-.87-.87-1.96-1.31-3.25-1.31-.83,0-1.6.2-2.29.6-.71.4-1.27.97-1.67,1.69-.39.7-.59,1.47-.59,2.29,0,1.26.45,2.34,1.33,3.21.88.86,1.97,1.3,3.24,1.3.84,0,1.61-.2,2.29-.59l.82,1.04h1.37l-1.34-1.7c.93-.92,1.4-2.02,1.4-3.29s-.44-2.37-1.32-3.24ZM7.98,62.18c0,.97-.34,1.81-1.02,2.49,0,0,0,0,0,0l-.04.04c-.33.31-.63.47-.74.52-.5.27-1.06.41-1.65.41-.95,0-1.76-.33-2.42-.99-.65-.66-.98-1.47-.98-2.42,0-.65.15-1.24.45-1.76.31-.53.72-.94,1.25-1.26.53-.31,1.11-.46,1.71-.46s1.18.16,1.72.47c1.15.66,1.71,1.64,1.71,2.98Z"/>
    <path class="cls-1" d="M17.19,64.39l-.08.12c-.51.78-1.27,1.18-2.26,1.18-2.15,0-3.27-1.73-3.27-3.44s1.12-3.44,3.27-3.44c.83,0,1.71.53,2.01,1.02l.08.13.97-.72-.08-.11c-.68-.86-1.76-1.36-2.97-1.36-2.54,0-4.45,1.93-4.45,4.48s1.91,4.48,4.45,4.48c1.31,0,2.56-.62,3.18-1.58l.07-.11-.91-.65Z"/>
  </g>
  <g>
    <path class="cls-1" d="M29.2,59.78c-.51-.7-1.33-1.05-2.16-1.05-1.93,0-3.3,1.7-3.3,3.59,0,2,1.36,3.59,3.3,3.59,1.05,0,1.89-.43,2.5-1.21l.77.65c-.77,1.04-1.89,1.52-3.27,1.52-2.48,0-4.4-1.92-4.4-4.55s1.83-4.55,4.4-4.55c1.17,0,2.32.4,3.05,1.36l-.89.65Z"/>
    <path class="cls-1" d="M34.85,57.99h.97l3.68,8.65h-1.2l-.88-2.13h-4.33l-.89,2.13h-1.16l3.81-8.65ZM35.31,59.31h-.02l-1.8,4.25h3.53l-1.71-4.25Z"/>
    <path class="cls-1" d="M40.94,57.99h2.21c1.68,0,3.45.24,3.45,2.38,0,1.26-.82,2.08-2.16,2.28l2.46,3.98h-1.26l-2.35-3.88h-1.32v3.88h-1.03v-8.65ZM41.97,61.81h.92c1.14,0,2.62,0,2.62-1.43,0-1.25-1.09-1.43-2.09-1.43h-1.44v2.86Z"/>
    <path class="cls-1" d="M48.71,57.99h5.44v.95h-4.41v2.71h4.12v.95h-4.12v3.08h4.63v.95h-5.66v-8.65Z"/>
    <path class="cls-1" d="M56.26,57.99h5.44v.95h-4.41v2.71h4.12v.95h-4.12v3.08h4.63v.95h-5.66v-8.65Z"/>
    <path class="cls-1" d="M63.81,57.99h2.21c1.68,0,3.45.24,3.45,2.38,0,1.26-.82,2.08-2.16,2.28l2.46,3.98h-1.26l-2.35-3.88h-1.32v3.88h-1.03v-8.65ZM64.84,61.81h.92c1.14,0,2.62,0,2.62-1.43,0-1.25-1.09-1.43-2.09-1.43h-1.44v2.86Z"/>
    <path class="cls-1" d="M79.38,59.52c-.34-.55-.95-.79-1.58-.79-.9,0-1.85.43-1.85,1.46,0,.79.44,1.15,1.82,1.59,1.34.43,2.59.87,2.59,2.57s-1.48,2.53-3.04,2.53c-1,0-2.08-.33-2.66-1.2l.88-.72c.37.64,1.1.96,1.85.96.88,0,1.88-.51,1.88-1.5,0-1.06-.72-1.25-2.26-1.76-1.22-.4-2.15-.94-2.15-2.38,0-1.66,1.43-2.49,2.94-2.49.97,0,1.79.27,2.42,1.01l-.84.73Z"/>
    <path class="cls-1" d="M88.44,59.78c-.51-.7-1.33-1.05-2.16-1.05-1.93,0-3.3,1.7-3.3,3.59,0,2,1.36,3.59,3.3,3.59,1.05,0,1.89-.43,2.5-1.21l.77.65c-.77,1.04-1.89,1.52-3.28,1.52-2.48,0-4.4-1.92-4.4-4.55s1.84-4.55,4.4-4.55c1.17,0,2.32.4,3.06,1.36l-.89.65Z"/>
    <path class="cls-1" d="M91.28,57.99h1.03v3.67h4.62v-3.67h1.03v8.65h-1.03v-4.03h-4.62v4.03h-1.03v-8.65Z"/>
    <path class="cls-1" d="M99.9,62.32c0-2.62,1.89-4.55,4.52-4.55s4.52,1.93,4.52,4.55-1.89,4.55-4.52,4.55-4.52-1.93-4.52-4.55ZM107.85,62.32c0-1.99-1.39-3.59-3.42-3.59s-3.42,1.6-3.42,3.59,1.39,3.59,3.42,3.59,3.42-1.6,3.42-3.59Z"/>
    <path class="cls-1" d="M110.39,62.32c0-2.62,1.89-4.55,4.52-4.55s4.52,1.93,4.52,4.55-1.89,4.55-4.52,4.55-4.52-1.93-4.52-4.55ZM118.34,62.32c0-1.99-1.4-3.59-3.42-3.59s-3.42,1.6-3.42,3.59,1.39,3.59,3.42,3.59,3.42-1.6,3.42-3.59Z"/>
    <path class="cls-1" d="M121.39,57.99h1.03v7.7h3.96v.95h-4.99v-8.65Z"/>
  </g>
</svg>