<?xml version="1.0" encoding="utf-8"?>
<!-- Generator: Adobe Illustrator 16.0.0, SVG Export Plug-In . SVG Version: 6.00 Build 0)  -->
<!DOCTYPE svg PUBLIC "-//W3C//DTD SVG 1.1//EN" "http://www.w3.org/Graphics/SVG/1.1/DTD/svg11.dtd">
<svg version="1.1" id="Layer_1" xmlns="http://www.w3.org/2000/svg" xmlns:xlink="http://www.w3.org/1999/xlink" x="0px" y="0px"
	 width="382px" height="52px" viewBox="0 0 382 52" enable-background="new 0 0 382 52" xml:space="preserve">
<polygon fill="#EC1D34" points="87.128,52 3.873,52 0,26.001 3.873,0 87.128,0 98.746,25.96 "/>
<polygon fill="#C3152A" points="0.025,25.832 0,26.001 3.873,52 87.128,52 98.746,25.96 98.688,25.832 "/>
<g>
	<g>
		<g>
			<path fill="#FFFFFF" d="M82.001,36.68c-2.166,3.363-6.683,5.991-12.074,5.991c-9.724,0-17.004-7.236-17.004-17.143
				c0-9.908,7.281-17.144,17.004-17.144c4.055,0,8.433,1.521,11.29,5.161l-2.903,2.167c-1.29-2.12-4.931-4.286-8.387-4.286
				c-8.387,0-13.41,6.59-13.41,14.102s5.022,14.102,13.41,14.102c3.41,0,6.912-1.107,9.355-4.887L82.001,36.68z"/>
		</g>
	</g>
	<path fill="#FFFFFF" d="M48.056,25.304c0-4.92-1.676-9.05-5.029-12.387C39.675,9.58,35.53,7.91,30.595,7.91
		c-3.18,0-6.098,0.765-8.752,2.296c-2.715,1.544-4.838,3.696-6.368,6.457c-1.515,2.7-2.272,5.626-2.272,8.775
		c0,4.861,1.696,8.949,5.089,12.264c3.393,3.315,7.529,4.972,12.407,4.972c3.393,0,6.44-0.831,9.142-2.498l3.378,4.276h4.05
		l-4.906-6.21C46.159,34.657,48.056,30.344,48.056,25.304z M40.329,35.632l0-0.002c-1.333,1.259-2.564,1.906-3.013,2.139
		c-2.058,1.104-4.309,1.664-6.758,1.664c-3.923,0-7.227-1.354-9.91-4.064s-4.024-6.021-4.024-9.931c0-2.651,0.616-5.058,1.848-7.222
		c1.232-2.165,2.941-3.879,5.127-5.145c2.186-1.266,4.526-1.898,7.02-1.898c2.463,0,4.808,0.636,7.032,1.908
		c4.672,2.681,7.009,6.746,7.009,12.196c0,4.001-1.377,7.383-4.124,10.144c-0.015,0.018-0.025,0.035-0.041,0.052
		c-0.048,0.047-0.095,0.09-0.143,0.136C40.343,35.616,40.337,35.624,40.329,35.632z"/>
</g>
<g>
	<g>
		<path fill="#43484C" d="M133.68,15.313c-1.936-2.626-5.023-3.962-8.157-3.962c-7.281,0-12.443,6.406-12.443,13.548
			c0,7.558,5.115,13.548,12.443,13.548c3.963,0,7.143-1.613,9.446-4.563l2.904,2.443c-2.904,3.916-7.143,5.713-12.35,5.713
			c-9.355,0-16.59-7.234-16.59-17.142c0-9.585,6.912-17.142,16.59-17.142c4.424,0,8.755,1.521,11.521,5.115L133.68,15.313z"/>
		<path fill="#43484C" d="M141.19,22.411c2.212-2.258,5.438-3.317,8.572-3.317c6.359,0,9.032,3.041,9.032,9.124v9.263
			c0,1.244,0.138,2.627,0.322,3.732h-3.456c-0.23-0.968-0.23-2.304-0.23-3.226h-0.092c-1.429,2.212-3.825,3.779-7.097,3.779
			c-4.377,0-8.018-2.213-8.018-6.405c0-7.144,8.295-7.559,13.594-7.559h1.382v-0.645c0-3.134-1.981-4.747-5.346-4.747
			c-2.304,0-4.7,0.784-6.405,2.351L141.19,22.411z M151.605,30.844c-4.562,0-7.511,1.244-7.511,4.146
			c0,2.72,2.027,3.733,4.746,3.733c4.147,0,6.268-2.995,6.359-6.497v-1.383H151.605z"/>
		<path fill="#43484C" d="M164.231,24.761c0-1.982-0.184-3.687-0.184-5.116h3.41c0,1.152,0.092,2.351,0.092,3.549h0.092
			c0.967-2.12,3.641-4.101,7.189-4.101c0.46,0,0.968,0.046,1.474,0.23l-0.23,3.641c-0.599-0.185-1.291-0.276-1.936-0.276
			c-4.378,0-6.313,3.087-6.313,8.018v10.507h-3.594V24.761z"/>
		<path fill="#43484C" d="M197.732,37.295c-2.535,3.272-5.577,4.471-9.585,4.471c-6.775,0-10.922-5.069-10.922-11.336
			c0-6.683,4.7-11.336,11.06-11.336c6.083,0,10.229,4.146,10.229,11.29v1.152h-17.418c0.276,3.732,3.133,6.912,7.051,6.912
			c3.087,0,5.16-1.106,6.866-3.271L197.732,37.295z M194.645,28.493c-0.138-3.641-2.534-6.083-6.497-6.083
			c-3.963,0-6.59,2.442-7.051,6.083H194.645z"/>
		<path fill="#43484C" d="M222.202,37.295c-2.535,3.272-5.577,4.471-9.586,4.471c-6.774,0-10.922-5.069-10.922-11.336
			c0-6.683,4.7-11.336,11.06-11.336c6.083,0,10.23,4.146,10.23,11.29v1.152h-17.419c0.276,3.732,3.134,6.912,7.051,6.912
			c3.087,0,5.161-1.106,6.867-3.271L222.202,37.295z M219.113,28.493c-0.138-3.641-2.534-6.083-6.497-6.083s-6.59,2.442-7.051,6.083
			H219.113z"/>
		<path fill="#43484C" d="M227.408,24.761c0-1.982-0.185-3.687-0.185-5.116h3.41c0,1.152,0.092,2.351,0.092,3.549h0.093
			c0.968-2.12,3.641-4.101,7.188-4.101c0.461,0,0.968,0.046,1.476,0.23l-0.23,3.641c-0.6-0.185-1.291-0.276-1.937-0.276
			c-4.377,0-6.313,3.087-6.313,8.018v10.507h-3.594V24.761z"/>
		<path fill="#43484C" d="M270.264,14.347c-1.29-2.074-3.594-2.996-5.944-2.996c-3.41,0-6.958,1.613-6.958,5.484
			c0,2.995,1.658,4.332,6.865,5.99c5.069,1.613,9.77,3.272,9.77,9.677c0,6.498-5.575,9.539-11.475,9.539
			c-3.778,0-7.833-1.243-10.046-4.516l3.318-2.719c1.383,2.396,4.147,3.641,6.958,3.641c3.318,0,7.098-1.936,7.098-5.668
			c0-4.009-2.719-4.7-8.526-6.636c-4.607-1.521-8.11-3.549-8.11-8.986c0-6.267,5.392-9.4,11.106-9.4
			c3.641,0,6.728,1.013,9.124,3.825L270.264,14.347z"/>
		<path fill="#43484C" d="M293.949,25.038c-1.521-1.844-3.271-2.627-5.438-2.627c-4.838,0-7.28,3.594-7.28,8.019
			c0,4.423,2.903,8.018,7.28,8.018c2.351,0,4.148-0.829,5.484-2.673l2.673,2.535c-2.074,2.396-5.023,3.456-8.157,3.456
			c-6.681,0-11.151-4.701-11.151-11.336c0-6.544,4.517-11.336,11.151-11.336c3.18,0,6.13,1.06,8.296,3.41L293.949,25.038z"/>
		<path fill="#43484C" d="M299.663,6.374h3.595v16.267h0.092c0.968-1.705,3.549-3.548,6.912-3.548c5.668,0,8.203,3.594,8.203,8.801
			v13.317h-3.595V28.263c0-3.594-1.566-5.852-4.931-5.852c-4.654,0-6.682,3.364-6.682,8.294v10.507h-3.595V6.374z"/>
		<path fill="#43484C" d="M334.408,19.093c6.636,0,11.521,4.607,11.521,11.336c0,6.728-4.885,11.336-11.521,11.336
			s-11.521-4.608-11.521-11.336C322.887,23.701,327.772,19.093,334.408,19.093z M334.408,38.447c4.654,0,7.65-3.502,7.65-8.018
			c0-4.517-2.996-8.019-7.65-8.019s-7.65,3.502-7.65,8.019C326.758,34.945,329.754,38.447,334.408,38.447z"/>
		<path fill="#43484C" d="M360.629,19.093c6.636,0,11.521,4.607,11.521,11.336c0,6.728-4.885,11.336-11.521,11.336
			s-11.521-4.608-11.521-11.336C349.107,23.701,353.993,19.093,360.629,19.093z M360.629,38.447c4.654,0,7.649-3.502,7.649-8.018
			c0-4.517-2.995-8.019-7.649-8.019s-7.65,3.502-7.65,8.019C352.979,34.945,355.975,38.447,360.629,38.447z"/>
		<path fill="#43484C" d="M376.896,6.374h3.594v34.838h-3.594V6.374z"/>
	</g>
</g>
<g>
</g>
<g>
</g>
<g>
</g>
<g>
</g>
<g>
</g>
<g>
</g>
<g>
</g>
<g>
</g>
<g>
</g>
<g>
</g>
<g>
</g>
<g>
</g>
<g>
</g>
<g>
</g>
<g>
</g>
</svg>
