<?xml version="1.0" encoding="utf-8"?>
<!-- Generator: Adobe Illustrator 28.2.0, SVG Export Plug-In . SVG Version: 6.00 Build 0)  -->
<svg version="1.1" id="Isolation_Mode" xmlns="http://www.w3.org/2000/svg" xmlns:xlink="http://www.w3.org/1999/xlink" x="0px"
	 y="0px" viewBox="0 0 194.2 284.5" style="enable-background:new 0 0 194.2 284.5;" xml:space="preserve">
<style type="text/css">
	.st0{fill:rgba(255, 255, 255, 0.8);}
	.st1{fill-rule:evenodd;clip-rule:evenodd;fill:rgba(255, 255, 255, 0.8);}
</style>
<g id="_x3C_Group_x3E_">
	<path id="_x3C_Path_x3E__00000183213115959405502660000013336841809616999840_" class="st0" d="M45,34.9c-9.9,0-18,8-18,18
		c0,10,8.1,17.9,18,17.9c10,0,18.1-7.9,18.1-17.9C63,42.9,54.9,34.9,45,34.9z"/>
	<path id="_x3C_Compound_Path_x3E__00000091696124937348847180000002095416996224196487_" class="st1" d="M194.2,259.1l-3.2,9.9
		c-2.9,9.5-6.8,14.6-11.5,15.3h-0.4c-1.5,0.1-2.9,0.2-4.3,0.2c-14,0-25.2-5.1-33.4-15.2c-2.5-3-4.5-5.9-5.8-9.1
		c-8.9,1.8-18.2,2.6-27.7,2.6c-16.7,0-31.9-2.7-45.6-8.2c-16.9-6.6-30.4-16.9-40.6-30.9C7.3,203.5,0,178.8,0,149.5
		c0-14.9,2.5-37,7.5-66.1c2-11,2.8-21.6,2.8-32.1c0-16.6-1.8-29.9-5.3-39.6L0.7,0l12.3,2.8C69.8,16.3,115,40.5,148.6,75.5
		c14.1,14.8,25.1,30.5,32.9,47.2c7.2,15.5,11.2,30.5,11.7,44.9l0.1,3.6c0,21.9-6.9,42.3-20.7,61.3c-4.9,6.8-10,12.6-15,17.3
		c4,3.6,8.3,6.4,13.1,8.1c4.1,1.6,8.1,2.4,11.9,2.4h1.2L194.2,259.1z M157.4,195.4c1,0.7,1.4,1.3,1.5,2.5c0.2,1.2-0.3,2-0.8,4.9
		c-0.5,2.8,1.5,7.3,2.4,11.3c1,4,1.5,3.4,2.5,4.1c0.9,1,1.1,2.6,0.5,4.8c-0.3,1.4-0.2,2.7,0.3,3.9c0.5,0.1,1.3,1,2,1.4
		c7-9.6,14.1-22.4,17.7-37.9l0.4-2c1.3-6.7,2-14,1.7-21.7C183.9,115.9,131.9,37,10.5,8.4c7.2,19.4,8.1,44.5,2.8,75.2
		c-8,46.3-16,94.9,13,135c2.8,4.5,6.5,8.7,11.2,12.6c0-3.8-1.7-9.2-1.7-10.6c0-1.6,3.4-6.2,6.1-8.8c2.8-2.4,4.8-3.3,6.6-3.9
		c1.8-0.4,4.6-0.9,6.4-2.8c1.7-1.9,9-5.2,13.3-6.3c2.9-0.7,5.9-0.6,9.1,0.5c0.7-1.6,1.2-2.9,1.5-4c0.2-1.5,0.5-6.7,0.1-11.5
		c-0.6-4.8-2.8-7.9-4-10.9c-0.8-1.9-1.3-3.9-1.5-5.9l-0.9-0.6l-1.1-2.3l-1,1.1l-1.3-2.9l-0.9-0.2l-0.7-0.9l-1.2-0.1
		c0-1.7-0.1-3-0.2-3.9c-0.1-1-0.5-1.6-1.2-1.8c-0.7-1.1-1-1.8-1-2.1c0-0.4-0.6,0-1.7,1c0.2-2.5,0.3-4,0.3-4.2c0-0.4-0.2-0.2-0.6,0.6
		l-0.5-3.3c-0.9,0.4-1.3,0.3-1.2-0.1c0.1-0.5,0.3-1.5,0.7-3l-0.1-2.3c-0.4,0.6-0.7,0.9-0.9,0.7c-0.1-0.4,0.1-1.8,0.5-4.4
		c-0.7,0.8-1.1,1.1-1.1,0.9c0-0.2,0.3-1.7,1-4.3c-1.6,1.5-2.3,1.8-2.1,0.8c0.4-1.1,0.9-1.9,1.5-2.6c-0.5-0.1-0.8-0.5-0.8-1
		c0-0.6,0.5-1.7,1.4-3.3l-0.2-0.8c-0.3-0.9,0.2-1.7-0.1-2c-0.4-0.1-0.7-0.7-1.1-1.8c0.8-0.4,1.4-0.9,1.8-1.5c0.4-0.6,0.3-1-0.1-1.2
		l0.1-2.9c0.7-0.5,1.2-1.1,1.5-1.9c0.5-1.4,0.6-3.9,0.1-5.3c-0.4-1.2-0.1-5.8-0.1-6.4c0-0.8-0.4-1-0.9-1.8c-0.2-0.9,0.4-0.6,0.9-2.2
		c0.5-1.6-1-3.5-1.3-5.9c-0.2-1.7,0.5-2.6,1.8-2.8l1.5,1.6c-0.2-2-0.3-3.4-0.3-4c0-1,1.2-1.7,1.8-2.1c0.4-0.2,1.2-0.7,2.2-1.4
		c1.1-0.4,1.7,0.1,1.7,1.4c3.4,5.6,5.3,8.8,5.6,9.4c0.5,1,1.5,1.5,3.8,3.3c2.4,1.8,3.4,4.6,3.7,6.3c0.3,1.6,1,3.4,2.2,4.4
		c1.4,1,2.8,2.7,3.7,5.2c0.5,1.7-0.3,2.2-2.3,1.6c0.3,2.6,2.4,4.8,3.2,5.7c0.9,1.1,2,1.1,2.1,2.2c0.1,1.1,1,2.8,2.4,3.6
		c1.6,0.4,3.6,0.9,4.5,2.5c1,1.8,2,2.8,4.2,3.8c2.4,0.9,4.6,2,7.9,5c3.5,2.9,5.8,4.6,9.3,5.7c3.3,1,11.1,1.3,14,2.1
		c3,0.8,7.1,4.6,11.7,7c3.1,1.8,5.8,4.3,8,7.7c3,2.8,4.8,7.6,11.2,13.8c4.2,4.1,10.6,6.9,19.2,8.2c-0.7,1.1-1.8,2-3.5,2.7
		c0.7,0.2,2.1,0.4,3.3,0.6c-0.2,0.6-0.3,1.3-0.4,2c-2.2,1-4.4,1.4-6.4,1.2l2.3,0.3c-2.2,0.9-4.6,0.9-7.1,0.1l0.4,1.1
		c-1.9-0.2-3.7-1.1-5.5-2.7l0.7,2.1l-4.6-3.1l1.6,2.5l-4.5-3.6l1.8,2.9c-1.8-0.2-3.4-1.8-4.7-4.7l0.1,3.3c-1.3-1.9-2.2-3.2-2.5-3.7
		c-0.4-0.4-0.8-0.3-1.2,0.2l-1.4-3.8l-0.2,2.1c-0.9-0.9-1.8-2-2.8-3.3c-0.1,0.8,1.6,6.4,3.2,9.6
		C154.1,194.3,156.3,194.8,157.4,195.4z M131.2,207.7c-1.3-2.6-10.3-9-11.9-12.8c-1.8-3.8-2.7-11.9-5.4-15.3
		c-1.7-2.2-3.7-3.6-6.1-4.4c-0.1,1.4-0.4,2.1-0.9,2.2c-0.6,0.1-1.3,0.1-2.3,0.1l-1.8-0.1c-1.4,3.1-2,5.9-2,8.4
		c0.1,3.6,1,14.1,0.7,14.8c-0.4,0.5-4.5,4.5-3.8,5.7c0,0.4,0.9,0.7,2.8,1c2.8,0.6,11.8,3.2,13.5,4.4c1.7,1.2,3.3,2.7,6.4,2.8
		c2.9,0.1,6.3-0.1,7.5,0.4c1.3,0.6,2.9,1.6,3.3,0.6C131.5,214.6,132.4,210.1,131.2,207.7z M156,221.7c-0.4-1.9-3.3-6-4.3-10.6
		c-0.8-4.4-2.3-7.2-4.2-9.3c-1.4-1.3-5.2-3.9-11.6-7.9c-0.7,3.4-0.3,5.9,1.2,7.3c1.4,1.4,2.5,2.2,3,2.2c0.1,1.2-0.1,2.1-0.5,2.8
		c-0.8,1.1-1.8,6.6-1.8,9.5c0,2.8-0.3,3.9,0.3,4c0.6,0.1,15.1,3.5,17.3,5C156,223.9,156.2,223,156,221.7z M93,189.1l-0.7-9.9
		l-1.4-0.8c-0.9,0.1-1.6,0.3-2,0.7c-0.8,0.4-2.7,7.7-3,10c-0.2,2.3-0.8,8.6-1.2,9.2c-0.4,0.6-0.7,1.5-1,2.8c3.6,2.5,5.8,3.5,6.6,3.2
		c1.4-0.4,2.1-1.4,2.7-3.8C93.5,198.8,93.5,195,93,189.1z"/>
</g>
</svg>
