<svg width="58" height="68" viewBox="0 0 58 68" fill="none" xmlns="http://www.w3.org/2000/svg">
<g clip-path="url(#clip0_1530_209)">
<path d="M42.6471 0.190552H6.26215C2.91404 0.190552 0.188477 2.95227 0.188477 6.34479V49.3666H6.26215V6.34479H42.6471V0.190552Z" fill="white"/>
<path d="M6.44971 49.5571H0V6.34475C0 2.84639 2.80912 0 6.26169 0H42.8346V6.53526H6.44971V49.5571ZM0.376036 49.176H6.07367V6.15424H42.4586V0.381024H6.26169C3.01664 0.381024 0.376036 3.05666 0.376036 6.34475V49.176Z" fill="white"/>
<path d="M51.757 12.4792H18.3901C15.0573 12.4792 12.3164 15.2565 12.3164 18.6335V61.6553C12.3164 65.0323 15.0573 67.8095 18.3901 67.8095H51.757C55.0856 67.8095 57.8111 65.0323 57.8111 61.6553V18.6335C57.8111 15.2565 55.0856 12.4792 51.757 12.4792ZM51.757 61.6553H18.3901V18.6335H51.757V61.6553Z" fill="white"/>
<path d="M51.7565 68H18.3896C14.9371 68 12.1279 65.1536 12.1279 61.6552V18.6334C12.1279 15.1351 14.9371 12.2887 18.3896 12.2887H51.7565C55.1993 12.2887 57.9987 15.1351 57.9987 18.6334V61.6552C57.9987 65.1536 55.1979 68 51.7565 68ZM18.3896 12.6697C15.1446 12.6697 12.504 15.3454 12.504 18.6334V61.6552C12.504 64.9433 15.1446 67.619 18.3896 67.619H51.7565C54.9918 67.619 57.6227 64.9433 57.6227 61.6552V18.6334C57.6227 15.3454 54.9904 12.6697 51.7565 12.6697H18.3896ZM51.9445 61.8457H18.2016V18.4429H51.9445V61.8457ZM18.5776 61.4647H51.5685V18.824H18.5776V61.4647Z" fill="white"/>
</g>
<defs>
<clipPath id="clip0_1530_209">
<rect width="58" height="68" fill="white"/>
</clipPath>
</defs>
</svg>
