<?xml version="1.0" encoding="UTF-8"?>
<svg id="Layer_1" xmlns="http://www.w3.org/2000/svg" version="1.1" xmlns:xlink="http://www.w3.org/1999/xlink" viewBox="0 0 168 168">
  <!-- Generator: Adobe Illustrator 30.5.0, SVG Export Plug-In . SVG Version: 2.1.4 Build 167)  -->
  <defs>
    <style>
      .st0 {
        fill: #231f20;
      }

      .st1 {
        fill: none;
        stroke: #231f20;
      }

      .st1, .st2 {
        stroke-miterlimit: 10;
      }

      .st2 {
        fill: url(#linear-gradient);
        stroke: #fff;
      }
    </style>
    <linearGradient id="linear-gradient" x1="5.5" y1="55.4" x2="162.5" y2="112.6" gradientUnits="userSpaceOnUse">
      <stop offset=".1" stop-color="#ffebb0"/>
      <stop offset=".8" stop-color="#ffebb0"/>
    </linearGradient>
  </defs>
  <circle class="st2" cx="84" cy="84" r="83.5"/>
  <g>
    <g>
      <path class="st0" d="M73.1,110.2l-1.5,1.4-.7-.8,2.3-1.9h1v8.2h-1.1v-6.9Z"/>
      <path class="st0" d="M81.2,114h0c-.3.1-.6.2-.9.2-1.2,0-2.5-.8-2.5-2.6s1.3-2.8,2.8-2.8,2.8,1,2.8,2.7-.3,1.6-.8,2.4l-2.1,3.3h-1.3l2.1-3.2h0ZM80.6,109.8c-1,0-1.7.7-1.7,1.7s.7,1.7,1.7,1.7,1.7-.7,1.7-1.7-.7-1.7-1.7-1.7Z"/>
      <path class="st0" d="M85.3,114.8c0-1,.7-1.8,1.6-2h0c-.6-.2-1.3-.8-1.3-2s1.1-2,2.4-2,2.4.8,2.4,2-.7,1.8-1.3,1.9h0c.9.3,1.6,1,1.6,2.1,0,1.6-1.2,2.5-2.7,2.5s-2.7-.9-2.7-2.5ZM89.5,114.8c0-1-.7-1.5-1.6-1.5-.9,0-1.6.7-1.6,1.5s.7,1.5,1.6,1.5,1.6-.6,1.6-1.5ZM87.9,112.3c.9,0,1.3-.6,1.3-1.3s-.5-1.3-1.3-1.3-1.3.5-1.3,1.3.5,1.3,1.3,1.3Z"/>
      <path class="st0" d="M96,115.4h-3.5v-1.1l3.3-5.3h1.3v5.4h1.2v1h-1.2v1.8h-1.1s0-1.8,0-1.8ZM96,110.3h0l-2.5,4.1h2.5v-4.1Z"/>
    </g>
    <g>
      <path class="st0" d="M74.8,51.8h5.3v1h-4.2v2.5h3.9v1h-3.9v2.6h4.4v1h-5.5v-8.2h0Z"/>
      <path class="st0" d="M83,58.3c.4.6,1.1.9,1.7.9s1.6-.5,1.6-1.4c0-1.9-4-.7-4-3.9s.8-2.3,2.8-2.3,1.8.2,2.4.9l-.9.8c-.3-.4-.8-.7-1.5-.7-1.2,0-1.6.7-1.6,1.2,0,2.1,4.1.8,4.1,3.8s-1.3,2.5-2.9,2.5-2.1-.4-2.6-1.1l.9-.8h0Z"/>
      <path class="st0" d="M91.9,52.8h-2.7v-1h6.4v1h-2.7v7.2h-1.1v-7.2h0Z"/>
      <path class="st0" d="M96.3,59.3c0-.4.3-.8.8-.8s.8.3.8.8-.3.8-.8.8-.8-.3-.8-.8Z"/>
    </g>
    <g>
      <path class="st0" d="M52.8,32.9c-.6-.2-1.3,0-1.8.3-1.2.9-1.4,2.4-.5,3.7.8,1.2,2.2,1.6,3.5.8.6-.4.9-1.1.9-1.7h1c0,.4-.2,1.6-1.4,2.4-1.8,1.2-3.9.5-4.8-.9-1.2-1.7-.8-3.8.9-4.9.7-.5,1.7-.8,2.5-.5l-.3.9h0Z"/>
      <path class="st0" d="M55.6,29.5l3.9-1.9.4.8-3.1,1.5.9,1.8,2.9-1.4.4.8-2.9,1.4,1,1.9,3.2-1.6.4.8-4,2-3-6Z"/>
      <path class="st0" d="M62.9,26.2l2.2-.8c1.6-.5,2.4.3,2.6,1.1.3.8,0,1.8-1,2.2l2.8,2.3-1.1.4-2.6-2.3-1,.3,1,2.8-.9.3-2.2-6.4h0ZM64.7,28.7l1.1-.4c.7-.2,1.3-.6,1-1.5-.3-.9-1-.8-1.7-.6l-1.1.4.7,2Z"/>
      <path class="st0" d="M71.9,24.5l-2.1.4-.2-.8,5.1-1,.2.8-2.1.4,1.2,5.7-.9.2-1.2-5.8h0Z"/>
      <path class="st0" d="M77.8,22.7h.9c0,0,.7,6.6.7,6.6h-.9c0,0-.7-6.6-.7-6.6Z"/>
      <path class="st0" d="M82.3,22.4h4.2c0,0,0,.8,0,.8h-3.3c0,0,0,2.2,0,2.2h3.1s0,.8,0,.8h-3.1s0,3,0,3h-.9s-.1-6.7-.1-6.7h0Z"/>
      <path class="st0" d="M89.9,22.6h.9c0,0-.7,6.8-.7,6.8h-.9c0,0,.7-6.8.7-6.8Z"/>
      <path class="st0" d="M98.9,25.5c-.3-.6-.8-1-1.4-1.1-1.5-.3-2.7.7-3,2.2-.3,1.4.4,2.8,1.9,3.1.8.2,1.4,0,1.9-.5l.6.7c-.2.2-1.2.9-2.7.6-2.1-.4-3-2.5-2.7-4.1.4-2,2.2-3.2,4.2-2.8.9.2,1.7.7,2.1,1.5,0,0-.9.4-.9.4Z"/>
      <path class="st0" d="M105.3,26.1l.8.3.3,7.3-1-.4v-1.8c0,0-3-1.1-3-1.1l-1.2,1.3-1-.4,5.1-5.2h0ZM105.3,30.6v-3.3h-.1l-2.3,2.4,2.4.9h0Z"/>
      <path class="st0" d="M111.5,29.7l-1.9-1,.4-.8,4.7,2.4-.4.8-1.9-1-2.7,5.2-.8-.4,2.7-5.2h0Z"/>
      <path class="st0" d="M117.3,32l3.6,2.5-.5.7-2.8-2-1.1,1.6,2.6,1.8-.5.7-2.6-1.8-1.2,1.8,2.9,2.1-.5.7-3.7-2.6,3.8-5.5h0Z"/>
    </g>
    <g>
      <path class="st0" d="M41.8,124.5c1.3-1.4,3.4-1.6,4.9-.2,1.5,1.3,1.5,3.4.2,4.8s-3.4,1.6-4.9.2c-1.5-1.3-1.5-3.4-.2-4.8ZM46.2,128.5c1-1.1,1-2.6,0-3.6-1.1-1-2.6-.8-3.6.2-1,1.1-1,2.6,0,3.6,1.1,1,2.6.8,3.6-.2h0Z"/>
      <path class="st0" d="M51,128.1l3.4,2.3-.5.7-2.7-1.8-1.2,1.7,2.5,1.7-.5.7-2.5-1.7-1.6,2.3-.7-.5,3.7-5.4h0Z"/>
      <path class="st0" d="M63.4,136.6c-.2-.6-.6-1.1-1.2-1.3-1.3-.6-2.7,0-3.3,1.5-.5,1.3-.2,2.7,1.2,3.3.7.3,1.3.2,1.9-.1l.5.8c-.3.2-1.4.7-2.7,0-1.9-.8-2.4-2.9-1.7-4.4.8-1.9,2.7-2.7,4.5-1.8.8.3,1.5,1,1.7,1.8l-.9.2h0Z"/>
      <path class="st0" d="M65.5,139.4c.5-1.9,2.3-3,4.2-2.4,1.9.5,2.9,2.3,2.4,4.2-.5,1.9-2.3,2.9-4.2,2.4s-2.9-2.3-2.4-4.2h0ZM71.2,141c.4-1.4-.3-2.8-1.7-3.2-1.5-.4-2.7.5-3.1,1.9-.4,1.4.3,2.8,1.7,3.2,1.5.4,2.7-.5,3.1-1.9Z"/>
      <path class="st0" d="M75.2,138.5h1.3c0,.1,1.6,5.3,1.6,5.3h0l2.6-4.7h1.3c0,.1-.7,6.7-.7,6.7h-.9c0,0,.5-5.4.5-5.4h0l-2.8,5.1h-.6c0,0-1.7-5.7-1.7-5.7h0l-.5,5.4h-.9c0,0,.7-6.6.7-6.6h0Z"/>
      <path class="st0" d="M84.7,139.1h2.3c1.7-.1,2.1.8,2.2,1.7s-.4,1.8-2,1.9h-1.4c0,0,.1,2.9.1,2.9h-.9s-.2-6.5-.2-6.5h0ZM85.7,142h1.2c.7,0,1.4-.3,1.4-1.2s-.7-1-1.4-1h-1.2s0,2.2,0,2.2Z"/>
      <path class="st0" d="M91.3,138.7h.9c0-.1.9,5.5.9,5.5l3-.4v.8c.1,0-3.7.6-3.7.6l-1-6.5h0Z"/>
      <path class="st0" d="M97.2,137.7l4.1-1.1.2.8-3.2.9.5,1.9,3-.8.2.8-3,.8.6,2,3.4-.9.2.8-4.2,1.2-1.7-6.3h0Z"/>
      <path class="st0" d="M105.3,136l-2,.8-.3-.8,4.7-1.9.3.8-2,.8,2.2,5.3-.8.3-2.2-5.3h0Z"/>
      <path class="st0" d="M109.7,133.1l.8-.4,3,5.8-.8.4-3-5.8h0Z"/>
      <path class="st0" d="M114.5,134.3c-1.1-1.6-.7-3.7.9-4.8s3.7-.7,4.8,1c1.1,1.6.7,3.7-.9,4.8-1.7,1.1-3.7.7-4.8-1ZM119.4,131c-.8-1.2-2.3-1.6-3.5-.8-1.2.8-1.4,2.3-.6,3.5s2.3,1.6,3.5.8c1.2-.8,1.4-2.3.6-3.6Z"/>
      <path class="st0" d="M120.1,126.3l.9-.8,6.3,1.5h0l-3.6-4,.7-.6,4.4,4.8-.8.8-6.3-1.5h0l3.7,4-.7.6-4.4-4.8h0Z"/>
    </g>
    <path class="st1" d="M21.7,71.4c41.8-.2,83.7-.2,125.5,0"/>
    <path class="st1" d="M21.7,96.5h125.5"/>
    <path class="st0" d="M84.4,35.1c22.4,0,41.3,15.4,46.5,36.2.4,0,.7,0,1.1,0-5.3-21.4-24.6-37.3-47.6-37.3s-42.1,15.7-47.5,36.9c.3,0,.7.2,1,.2,5.3-20.7,24.1-36.1,46.5-36.1Z"/>
    <path class="st0" d="M130.5,96.5c-5.8,20-24.3,34.6-46.1,34.6s-40.5-14.9-46.2-35.1c0,0,0,0,0,0-.3,0-.6,0-1,.2,5.7,20.7,24.8,36,47.3,36s41.3-15,47.1-35.5c-.3,0-.7-.1-1.1-.2h0Z"/>
    <path class="st0" d="M44.7,39.3c-9.3,8.4-15.9,19.7-18.5,32.4.4,0,.7,0,1.1,0,2.5-12.4,9-23.3,18-31.5-.2-.3-.4-.6-.6-.9Z"/>
    <path class="st0" d="M123.4,38.8c-.2.3-.4.6-.6.9,9.3,8.2,15.9,19.3,18.5,31.9.3,0,.6,0,.8,0,0,0,.1,0,.2-.1-2.6-12.9-9.4-24.3-18.9-32.8h0Z"/>
    <path class="st0" d="M39.7,120.4c-5.7-6.8-9.9-15-12-23.9-.4,0-.7,0-1.1-.1,2.1,9.3,6.4,17.7,12.4,24.8.2-.2.5-.5.8-.8h0Z"/>
    <path class="st0" d="M129.8,121c5.8-6.9,10-15.2,12.1-24.3-.4,0-.8.1-1.1.2-2.1,8.8-6.2,16.7-11.8,23.5.3.2.6.4.8.7h0Z"/>
    <g>
      <path class="st0" d="M28.6,81.3c-.9-.9-2-1.3-3.2-1.3s-1.6.2-2.3.6c-.7.4-1.3,1-1.7,1.7-.4.7-.6,1.5-.6,2.3,0,1.3.4,2.3,1.3,3.2.9.9,2,1.3,3.2,1.3s1.6-.2,2.3-.6l.8,1h1.4l-1.3-1.7c.9-.9,1.4-2,1.4-3.3s-.4-2.4-1.3-3.2h0ZM28.8,84.5c0,1-.3,1.8-1,2.5h0c-.3.3-.6.5-.7.6-.5.3-1.1.4-1.7.4-1,0-1.8-.3-2.4-1-.6-.7-1-1.5-1-2.4s.1-1.2.5-1.8c.3-.5.7-.9,1.2-1.3.5-.3,1.1-.5,1.7-.5s1.2.2,1.7.5c1.2.7,1.7,1.6,1.7,3h0Z"/>
      <path class="st0" d="M38,86.7h0c-.5.9-1.3,1.3-2.3,1.3-2.1,0-3.3-1.7-3.3-3.4s1.1-3.4,3.3-3.4,1.7.5,2,1h0c0,.1,1-.6,1-.6h0c-.7-1-1.8-1.5-3-1.5-2.5,0-4.4,1.9-4.4,4.5s1.9,4.5,4.4,4.5,2.6-.6,3.2-1.6h0c0-.1-.9-.8-.9-.8h0Z"/>
    </g>
    <g>
      <path class="st0" d="M50,82.1c-.5-.7-1.3-1-2.2-1-1.9,0-3.3,1.7-3.3,3.6s1.4,3.6,3.3,3.6,1.9-.4,2.5-1.2l.8.7c-.8,1-1.9,1.5-3.3,1.5-2.5,0-4.4-1.9-4.4-4.5s1.8-4.5,4.4-4.5,2.3.4,3,1.4l-.9.7Z"/>
      <path class="st0" d="M55.7,80.3h1l3.7,8.6h-1.2l-.9-2.1h-4.3l-.9,2.1h-1.2s3.8-8.7,3.8-8.6ZM56.1,81.6h0l-1.8,4.2h3.5l-1.7-4.2Z"/>
      <path class="st0" d="M61.8,80.3h2.2c1.7,0,3.5.2,3.5,2.4s-.8,2.1-2.2,2.3l2.5,4h-1.3l-2.3-3.9h-1.3v3.9h-1v-8.7h0ZM62.8,84.1h.9c1.1,0,2.6,0,2.6-1.4s-1.1-1.4-2.1-1.4h-1.4v2.9h0Z"/>
      <path class="st0" d="M69.5,80.3h5.4v1h-4.4v2.7h4.1v1h-4.1v3.1h4.6v.9h-5.7v-8.7h0Z"/>
      <path class="st0" d="M77.1,80.3h5.4v1h-4.4v2.7h4.1v1h-4.1v3.1h4.6v.9h-5.7v-8.7h0Z"/>
      <path class="st0" d="M84.6,80.3h2.2c1.7,0,3.4.2,3.4,2.4s-.8,2.1-2.2,2.3l2.5,4h-1.3l-2.3-3.9h-1.3v3.9h-1v-8.7h0ZM85.7,84.1h.9c1.1,0,2.6,0,2.6-1.4s-1.1-1.4-2.1-1.4h-1.4v2.9h0Z"/>
      <path class="st0" d="M100.2,81.8c-.3-.5-.9-.8-1.6-.8-.9,0-1.8.4-1.8,1.5s.4,1.2,1.8,1.6c1.3.4,2.6.9,2.6,2.6s-1.5,2.5-3,2.5-2.1-.3-2.7-1.2l.9-.7c.4.6,1.1,1,1.8,1s1.9-.5,1.9-1.5-.7-1.2-2.3-1.8c-1.2-.4-2.2-.9-2.2-2.4s1.4-2.5,2.9-2.5,1.8.3,2.4,1l-.8.7h0Z"/>
      <path class="st0" d="M109.3,82.1c-.5-.7-1.3-1-2.2-1-1.9,0-3.3,1.7-3.3,3.6s1.4,3.6,3.3,3.6,1.9-.4,2.5-1.2l.8.7c-.8,1-1.9,1.5-3.3,1.5-2.5,0-4.4-1.9-4.4-4.5s1.8-4.5,4.4-4.5,2.3.4,3.1,1.4c0,0-.9.7-.9.7Z"/>
      <path class="st0" d="M112.1,80.3h1v3.7h4.6v-3.7h1v8.7h-1v-4h-4.6v4h-1v-8.7Z"/>
      <path class="st0" d="M120.7,84.6c0-2.6,1.9-4.5,4.5-4.5s4.5,1.9,4.5,4.5-1.9,4.6-4.5,4.6-4.5-1.9-4.5-4.6ZM128.7,84.6c0-2-1.4-3.6-3.4-3.6s-3.4,1.6-3.4,3.6,1.4,3.6,3.4,3.6,3.4-1.6,3.4-3.6Z"/>
      <path class="st0" d="M131.2,84.6c0-2.6,1.9-4.5,4.5-4.5s4.5,1.9,4.5,4.5-1.9,4.6-4.5,4.6-4.5-1.9-4.5-4.6ZM139.2,84.6c0-2-1.4-3.6-3.4-3.6s-3.4,1.6-3.4,3.6,1.4,3.6,3.4,3.6,3.4-1.6,3.4-3.6Z"/>
      <path class="st0" d="M142.2,80.3h1v7.7h4v.9h-5s0-8.7,0-8.6Z"/>
    </g>
    <g>
      <path class="st0" d="M73.1,110.2l-1.5,1.4-.7-.8,2.3-1.9h1v8.2h-1.1v-6.9Z"/>
      <path class="st0" d="M81.2,114h0c-.3.1-.6.2-.9.2-1.2,0-2.5-.8-2.5-2.6s1.3-2.8,2.8-2.8,2.8,1,2.8,2.7-.3,1.6-.8,2.4l-2.1,3.3h-1.3l2.1-3.2h0ZM80.6,109.8c-1,0-1.7.7-1.7,1.7s.7,1.7,1.7,1.7,1.7-.7,1.7-1.7-.7-1.7-1.7-1.7Z"/>
      <path class="st0" d="M85.3,114.8c0-1,.7-1.8,1.6-2h0c-.6-.2-1.3-.8-1.3-2s1.1-2,2.4-2,2.4.8,2.4,2-.7,1.8-1.3,1.9h0c.9.3,1.6,1,1.6,2.1,0,1.6-1.2,2.5-2.7,2.5s-2.7-.9-2.7-2.5ZM89.5,114.8c0-1-.7-1.5-1.6-1.5-.9,0-1.6.7-1.6,1.5s.7,1.5,1.6,1.5,1.6-.6,1.6-1.5ZM87.9,112.3c.9,0,1.3-.6,1.3-1.3s-.5-1.3-1.3-1.3-1.3.5-1.3,1.3.5,1.3,1.3,1.3Z"/>
      <path class="st0" d="M96,115.4h-3.5v-1.1l3.3-5.3h1.3v5.4h1.2v1h-1.2v1.8h-1.1s0-1.8,0-1.8ZM96,110.3h0l-2.5,4.1h2.5v-4.1Z"/>
    </g>
    <g>
      <path class="st0" d="M74.8,51.8h5.3v1h-4.2v2.5h3.9v1h-3.9v2.6h4.4v1h-5.5v-8.2h0Z"/>
      <path class="st0" d="M83,58.3c.4.6,1.1.9,1.7.9s1.6-.5,1.6-1.4c0-1.9-4-.7-4-3.9s.8-2.3,2.8-2.3,1.8.2,2.4.9l-.9.8c-.3-.4-.8-.7-1.5-.7-1.2,0-1.6.7-1.6,1.2,0,2.1,4.1.8,4.1,3.8s-1.3,2.5-2.9,2.5-2.1-.4-2.6-1.1l.9-.8h0Z"/>
      <path class="st0" d="M91.9,52.8h-2.7v-1h6.4v1h-2.7v7.2h-1.1v-7.2h0Z"/>
      <path class="st0" d="M96.3,59.3c0-.4.3-.8.8-.8s.8.3.8.8-.3.8-.8.8-.8-.3-.8-.8Z"/>
    </g>
    <g>
      <path class="st0" d="M52.8,32.9c-.6-.2-1.3,0-1.8.3-1.2.9-1.4,2.4-.5,3.7.8,1.2,2.2,1.6,3.5.8.6-.4.9-1.1.9-1.7h1c0,.4-.2,1.6-1.4,2.4-1.8,1.2-3.9.5-4.8-.9-1.2-1.7-.8-3.8.9-4.9.7-.5,1.7-.8,2.5-.5l-.3.9h0Z"/>
      <path class="st0" d="M55.6,29.5l3.9-1.9.4.8-3.1,1.5.9,1.8,2.9-1.4.4.8-2.9,1.4,1,1.9,3.2-1.6.4.8-4,2-3-6Z"/>
      <path class="st0" d="M62.9,26.2l2.2-.8c1.6-.5,2.4.3,2.6,1.1.3.8,0,1.8-1,2.2l2.8,2.3-1.1.4-2.6-2.3-1,.3,1,2.8-.9.3-2.2-6.4h0ZM64.7,28.7l1.1-.4c.7-.2,1.3-.6,1-1.5-.3-.9-1-.8-1.7-.6l-1.1.4.7,2Z"/>
      <path class="st0" d="M71.9,24.5l-2.1.4-.2-.8,5.1-1,.2.8-2.1.4,1.2,5.7-.9.2-1.2-5.8h0Z"/>
      <path class="st0" d="M77.8,22.7h.9c0,0,.7,6.6.7,6.6h-.9c0,0-.7-6.6-.7-6.6Z"/>
      <path class="st0" d="M82.3,22.4h4.2c0,0,0,.8,0,.8h-3.3c0,0,0,2.2,0,2.2h3.1s0,.8,0,.8h-3.1s0,3,0,3h-.9s-.1-6.7-.1-6.7h0Z"/>
      <path class="st0" d="M89.9,22.6h.9c0,0-.7,6.8-.7,6.8h-.9c0,0,.7-6.8.7-6.8Z"/>
      <path class="st0" d="M98.9,25.5c-.3-.6-.8-1-1.4-1.1-1.5-.3-2.7.7-3,2.2-.3,1.4.4,2.8,1.9,3.1.8.2,1.4,0,1.9-.5l.6.7c-.2.2-1.2.9-2.7.6-2.1-.4-3-2.5-2.7-4.1.4-2,2.2-3.2,4.2-2.8.9.2,1.7.7,2.1,1.5,0,0-.9.4-.9.4Z"/>
      <path class="st0" d="M105.3,26.1l.8.3.3,7.3-1-.4v-1.8c0,0-3-1.1-3-1.1l-1.2,1.3-1-.4,5.1-5.2h0ZM105.3,30.6v-3.3h-.1l-2.3,2.4,2.4.9h0Z"/>
      <path class="st0" d="M111.5,29.7l-1.9-1,.4-.8,4.7,2.4-.4.8-1.9-1-2.7,5.2-.8-.4,2.7-5.2h0Z"/>
      <path class="st0" d="M117.3,32l3.6,2.5-.5.7-2.8-2-1.1,1.6,2.6,1.8-.5.7-2.6-1.8-1.2,1.8,2.9,2.1-.5.7-3.7-2.6,3.8-5.5h0Z"/>
    </g>
    <g>
      <path class="st0" d="M41.8,124.5c1.3-1.4,3.4-1.6,4.9-.2,1.5,1.3,1.5,3.4.2,4.8s-3.4,1.6-4.9.2c-1.5-1.3-1.5-3.4-.2-4.8ZM46.2,128.5c1-1.1,1-2.6,0-3.6-1.1-1-2.6-.8-3.6.2-1,1.1-1,2.6,0,3.6,1.1,1,2.6.8,3.6-.2h0Z"/>
      <path class="st0" d="M51,128.1l3.4,2.3-.5.7-2.7-1.8-1.2,1.7,2.5,1.7-.5.7-2.5-1.7-1.6,2.3-.7-.5,3.7-5.4h0Z"/>
      <path class="st0" d="M63.4,136.6c-.2-.6-.6-1.1-1.2-1.3-1.3-.6-2.7,0-3.3,1.5-.5,1.3-.2,2.7,1.2,3.3.7.3,1.3.2,1.9-.1l.5.8c-.3.2-1.4.7-2.7,0-1.9-.8-2.4-2.9-1.7-4.4.8-1.9,2.7-2.7,4.5-1.8.8.3,1.5,1,1.7,1.8l-.9.2h0Z"/>
      <path class="st0" d="M65.5,139.4c.5-1.9,2.3-3,4.2-2.4,1.9.5,2.9,2.3,2.4,4.2-.5,1.9-2.3,2.9-4.2,2.4s-2.9-2.3-2.4-4.2h0ZM71.2,141c.4-1.4-.3-2.8-1.7-3.2-1.5-.4-2.7.5-3.1,1.9-.4,1.4.3,2.8,1.7,3.2,1.5.4,2.7-.5,3.1-1.9Z"/>
      <path class="st0" d="M75.2,138.5h1.3c0,.1,1.6,5.3,1.6,5.3h0l2.6-4.7h1.3c0,.1-.7,6.7-.7,6.7h-.9c0,0,.5-5.4.5-5.4h0l-2.8,5.1h-.6c0,0-1.7-5.7-1.7-5.7h0l-.5,5.4h-.9c0,0,.7-6.6.7-6.6h0Z"/>
      <path class="st0" d="M84.7,139.1h2.3c1.7-.1,2.1.8,2.2,1.7s-.4,1.8-2,1.9h-1.4c0,0,.1,2.9.1,2.9h-.9s-.2-6.5-.2-6.5h0ZM85.7,142h1.2c.7,0,1.4-.3,1.4-1.2s-.7-1-1.4-1h-1.2s0,2.2,0,2.2Z"/>
      <path class="st0" d="M91.3,138.7h.9c0-.1.9,5.5.9,5.5l3-.4v.8c.1,0-3.7.6-3.7.6l-1-6.5h0Z"/>
      <path class="st0" d="M97.2,137.7l4.1-1.1.2.8-3.2.9.5,1.9,3-.8.2.8-3,.8.6,2,3.4-.9.2.8-4.2,1.2-1.7-6.3h0Z"/>
      <path class="st0" d="M105.3,136l-2,.8-.3-.8,4.7-1.9.3.8-2,.8,2.2,5.3-.8.3-2.2-5.3h0Z"/>
      <path class="st0" d="M109.7,133.1l.8-.4,3,5.8-.8.4-3-5.8h0Z"/>
      <path class="st0" d="M114.5,134.3c-1.1-1.6-.7-3.7.9-4.8s3.7-.7,4.8,1c1.1,1.6.7,3.7-.9,4.8-1.7,1.1-3.7.7-4.8-1ZM119.4,131c-.8-1.2-2.3-1.6-3.5-.8-1.2.8-1.4,2.3-.6,3.5s2.3,1.6,3.5.8c1.2-.8,1.4-2.3.6-3.6Z"/>
      <path class="st0" d="M120.1,126.3l.9-.8,6.3,1.5h0l-3.6-4,.7-.6,4.4,4.8-.8.8-6.3-1.5h0l3.7,4-.7.6-4.4-4.8h0Z"/>
    </g>
    <path class="st1" d="M21.7,71.4c41.8-.2,83.7-.2,125.5,0"/>
    <path class="st1" d="M21.7,96.5h125.5"/>
    <path class="st0" d="M84.4,35.1c22.4,0,41.3,15.4,46.5,36.2.4,0,.7,0,1.1,0-5.3-21.4-24.6-37.3-47.6-37.3s-42.1,15.7-47.5,36.9c.3,0,.7.2,1,.2,5.3-20.7,24.1-36.1,46.5-36.1Z"/>
    <path class="st0" d="M130.5,96.5c-5.8,20-24.3,34.6-46.1,34.6s-40.5-14.9-46.2-35.1c0,0,0,0,0,0-.3,0-.6,0-1,.2,5.7,20.7,24.8,36,47.3,36s41.3-15,47.1-35.5c-.3,0-.7-.1-1.1-.2h0Z"/>
    <path class="st0" d="M44.7,39.3c-9.3,8.4-15.9,19.7-18.5,32.4.4,0,.7,0,1.1,0,2.5-12.4,9-23.3,18-31.5-.2-.3-.4-.6-.6-.9Z"/>
    <path class="st0" d="M123.4,38.8c-.2.3-.4.6-.6.9,9.3,8.2,15.9,19.3,18.5,31.9.3,0,.6,0,.8,0,0,0,.1,0,.2-.1-2.6-12.9-9.4-24.3-18.9-32.8h0Z"/>
    <path class="st0" d="M39.7,120.4c-5.7-6.8-9.9-15-12-23.9-.4,0-.7,0-1.1-.1,2.1,9.3,6.4,17.7,12.4,24.8.2-.2.5-.5.8-.8h0Z"/>
    <path class="st0" d="M129.8,121c5.8-6.9,10-15.2,12.1-24.3-.4,0-.8.1-1.1.2-2.1,8.8-6.2,16.7-11.8,23.5.3.2.6.4.8.7h0Z"/>
    <g>
      <path class="st0" d="M28.6,81.3c-.9-.9-2-1.3-3.2-1.3s-1.6.2-2.3.6c-.7.4-1.3,1-1.7,1.7-.4.7-.6,1.5-.6,2.3,0,1.3.4,2.3,1.3,3.2.9.9,2,1.3,3.2,1.3s1.6-.2,2.3-.6l.8,1h1.4l-1.3-1.7c.9-.9,1.4-2,1.4-3.3s-.4-2.4-1.3-3.2h0ZM28.8,84.5c0,1-.3,1.8-1,2.5h0c-.3.3-.6.5-.7.6-.5.3-1.1.4-1.7.4-1,0-1.8-.3-2.4-1-.6-.7-1-1.5-1-2.4s.1-1.2.5-1.8c.3-.5.7-.9,1.2-1.3.5-.3,1.1-.5,1.7-.5s1.2.2,1.7.5c1.2.7,1.7,1.6,1.7,3h0Z"/>
      <path class="st0" d="M38,86.7h0c-.5.9-1.3,1.3-2.3,1.3-2.1,0-3.3-1.7-3.3-3.4s1.1-3.4,3.3-3.4,1.7.5,2,1h0c0,.1,1-.6,1-.6h0c-.7-1-1.8-1.5-3-1.5-2.5,0-4.4,1.9-4.4,4.5s1.9,4.5,4.4,4.5,2.6-.6,3.2-1.6h0c0-.1-.9-.8-.9-.8h0Z"/>
    </g>
    <g>
      <path class="st0" d="M50,82.1c-.5-.7-1.3-1-2.2-1-1.9,0-3.3,1.7-3.3,3.6s1.4,3.6,3.3,3.6,1.9-.4,2.5-1.2l.8.7c-.8,1-1.9,1.5-3.3,1.5-2.5,0-4.4-1.9-4.4-4.5s1.8-4.5,4.4-4.5,2.3.4,3,1.4l-.9.7Z"/>
      <path class="st0" d="M55.7,80.3h1l3.7,8.6h-1.2l-.9-2.1h-4.3l-.9,2.1h-1.2s3.8-8.7,3.8-8.6ZM56.1,81.6h0l-1.8,4.2h3.5l-1.7-4.2Z"/>
      <path class="st0" d="M61.8,80.3h2.2c1.7,0,3.5.2,3.5,2.4s-.8,2.1-2.2,2.3l2.5,4h-1.3l-2.3-3.9h-1.3v3.9h-1v-8.7h0ZM62.8,84.1h.9c1.1,0,2.6,0,2.6-1.4s-1.1-1.4-2.1-1.4h-1.4v2.9h0Z"/>
      <path class="st0" d="M69.5,80.3h5.4v1h-4.4v2.7h4.1v1h-4.1v3.1h4.6v.9h-5.7v-8.7h0Z"/>
      <path class="st0" d="M77.1,80.3h5.4v1h-4.4v2.7h4.1v1h-4.1v3.1h4.6v.9h-5.7v-8.7h0Z"/>
      <path class="st0" d="M84.6,80.3h2.2c1.7,0,3.4.2,3.4,2.4s-.8,2.1-2.2,2.3l2.5,4h-1.3l-2.3-3.9h-1.3v3.9h-1v-8.7h0ZM85.7,84.1h.9c1.1,0,2.6,0,2.6-1.4s-1.1-1.4-2.1-1.4h-1.4v2.9h0Z"/>
      <path class="st0" d="M100.2,81.8c-.3-.5-.9-.8-1.6-.8-.9,0-1.8.4-1.8,1.5s.4,1.2,1.8,1.6c1.3.4,2.6.9,2.6,2.6s-1.5,2.5-3,2.5-2.1-.3-2.7-1.2l.9-.7c.4.6,1.1,1,1.8,1s1.9-.5,1.9-1.5-.7-1.2-2.3-1.8c-1.2-.4-2.2-.9-2.2-2.4s1.4-2.5,2.9-2.5,1.8.3,2.4,1l-.8.7h0Z"/>
      <path class="st0" d="M109.3,82.1c-.5-.7-1.3-1-2.2-1-1.9,0-3.3,1.7-3.3,3.6s1.4,3.6,3.3,3.6,1.9-.4,2.5-1.2l.8.7c-.8,1-1.9,1.5-3.3,1.5-2.5,0-4.4-1.9-4.4-4.5s1.8-4.5,4.4-4.5,2.3.4,3.1,1.4c0,0-.9.7-.9.7Z"/>
      <path class="st0" d="M112.1,80.3h1v3.7h4.6v-3.7h1v8.7h-1v-4h-4.6v4h-1v-8.7Z"/>
      <path class="st0" d="M120.7,84.6c0-2.6,1.9-4.5,4.5-4.5s4.5,1.9,4.5,4.5-1.9,4.6-4.5,4.6-4.5-1.9-4.5-4.6ZM128.7,84.6c0-2-1.4-3.6-3.4-3.6s-3.4,1.6-3.4,3.6,1.4,3.6,3.4,3.6,3.4-1.6,3.4-3.6Z"/>
      <path class="st0" d="M131.2,84.6c0-2.6,1.9-4.5,4.5-4.5s4.5,1.9,4.5,4.5-1.9,4.6-4.5,4.6-4.5-1.9-4.5-4.6ZM139.2,84.6c0-2-1.4-3.6-3.4-3.6s-3.4,1.6-3.4,3.6,1.4,3.6,3.4,3.6,3.4-1.6,3.4-3.6Z"/>
      <path class="st0" d="M142.2,80.3h1v7.7h4v.9h-5s0-8.7,0-8.6Z"/>
    </g>
  </g>
</svg>